# xmcd
#
# Track frame offsets:
#	150
#	23935
#	48180
#	70067
#	89927
#	114285
#	137305
#	159982
#	180947
#	200607
#	221175
#	242832
#	265320
#	289092
#
# Disc length: 4141 seconds
#
# Revision: 0
# Processed by: cddbd v1.5.2PL0 Copyright (c) Steve Scherf et al.
# Submitted via: dBpowerAMP V4.0
#
DISCID=c8102b0e
DTITLE=Various Artist - GENERATION SACRIFIEE
DYEAR=1900
DGENRE=ZOUGLOU
TTITLE0=Bouche B
TTITLE1=Regarde
TTITLE2=Waligou
TTITLE3=Politique meurtrière
TTITLE4=Vive le maire
TTITLE5=Hommage
TTITLE6=Babylon
TTITLE7=Sans papiers
TTITLE8=Génération sacrifiée
TTITLE9=Romark
TTITLE10=Tumbati
TTITLE11=Cerceuil roulant
TTITLE12=Plus jamais ça
TTITLE13=LES SALOPARDS - Tumbati (world)
EXTD=
EXTT0=
EXTT1=
EXTT2=
EXTT3=
EXTT4=
EXTT5=
EXTT6=
EXTT7=
EXTT8=
EXTT9=
EXTT10=
EXTT11=
EXTT12=
EXTT13=
PLAYORDER=
